<svg width="29" height="29" viewBox="0 0 29 29" fill="none" xmlns="http://www.w3.org/2000/svg">
<path d="M25.0831 20.1434H8.58634L9.54335 16.2626L6.05306 6.61031H2.71875V5.4375H6.87638L10.7678 16.1981L10.084 18.9706H25.0831V20.1434Z" fill="white"/>
<path d="M24.2017 16.8168H10.1486V15.644H24.2017C24.2903 15.644 24.3762 15.6131 24.4445 15.5567C24.5128 15.5002 24.5594 15.4218 24.5762 15.3348L25.8441 8.74571C25.8547 8.6905 25.853 8.63362 25.8391 8.57914C25.8252 8.52467 25.7994 8.47393 25.7636 8.43055C25.7279 8.38717 25.683 8.35223 25.6321 8.32821C25.5813 8.30419 25.5258 8.29168 25.4696 8.29159H7.07275V7.11877H25.4695C25.6985 7.11882 25.9247 7.16944 26.1319 7.26703C26.339 7.36463 26.5221 7.50678 26.668 7.68333C26.8138 7.85988 26.9189 8.06647 26.9756 8.28833C27.0324 8.5102 27.0394 8.74186 26.9963 8.96677L25.7284 15.5558C25.6597 15.9105 25.4698 16.2302 25.1913 16.4602C24.9128 16.6903 24.5629 16.8164 24.2017 16.8168Z" fill="white"/>
<path d="M12.0847 24.4687C11.6659 24.4687 11.2565 24.3444 10.9083 24.1117C10.5602 23.879 10.2888 23.5483 10.1286 23.1613C9.96839 22.7744 9.92651 22.3486 10.0083 21.9379C10.09 21.5272 10.2918 21.1499 10.5879 20.8538C10.8841 20.5578 11.2614 20.3561 11.6722 20.2745C12.0829 20.1929 12.5087 20.2349 12.8956 20.3952C13.2824 20.5555 13.6131 20.827 13.8457 21.1752C14.0783 21.5235 14.2024 21.9329 14.2024 22.3517C14.2017 22.913 13.9783 23.4512 13.5813 23.8481C13.1843 24.245 12.6461 24.4682 12.0847 24.4687ZM12.0847 21.4067C11.8979 21.4068 11.7153 21.4622 11.56 21.566C11.4047 21.6698 11.2837 21.8174 11.2122 21.9899C11.1407 22.1625 11.1221 22.3524 11.1585 22.5357C11.195 22.7189 11.2849 22.8872 11.417 23.0192C11.5491 23.1513 11.7174 23.2413 11.9006 23.2778C12.0838 23.3142 12.2737 23.2955 12.4463 23.2241C12.6189 23.1526 12.7664 23.0316 12.8702 22.8763C12.9741 22.721 13.0295 22.5384 13.0296 22.3516C13.0293 22.1011 12.9297 21.8609 12.7525 21.6838C12.5754 21.5066 12.3352 21.407 12.0847 21.4068V21.4067Z" fill="white"/>
<path d="M21.2255 24.4687C20.8068 24.4687 20.3974 24.3444 20.0492 24.1117C19.701 23.879 19.4297 23.5483 19.2695 23.1613C19.1093 22.7744 19.0674 22.3487 19.1491 21.9379C19.2309 21.5272 19.4326 21.1499 19.7288 20.8539C20.0249 20.5578 20.4023 20.3562 20.813 20.2745C21.2238 20.1929 21.6495 20.2349 22.0364 20.3952C22.4233 20.5555 22.7539 20.8269 22.9866 21.1752C23.2192 21.5234 23.3433 21.9328 23.3432 22.3516C23.3426 22.913 23.1192 23.4512 22.7222 23.8481C22.3252 24.245 21.7869 24.4682 21.2255 24.4687ZM21.2255 21.4067C21.0387 21.4068 20.8561 21.4622 20.7009 21.566C20.5456 21.6698 20.4245 21.8174 20.3531 21.9899C20.2816 22.1625 20.2629 22.3524 20.2994 22.5357C20.3358 22.7189 20.4258 22.8872 20.5579 23.0192C20.69 23.1513 20.8583 23.2413 21.0415 23.2778C21.2247 23.3142 21.4146 23.2955 21.5872 23.2241C21.7598 23.1526 21.9073 23.0316 22.0111 22.8763C22.1149 22.721 22.1704 22.5384 22.1704 22.3516C22.1702 22.1011 22.0705 21.8609 21.8934 21.6838C21.7162 21.5066 21.4761 21.407 21.2255 21.4068V21.4067Z" fill="white"/>
<path d="M22.7185 7.70514H21.5457V16.2304H22.7185V7.70514Z" fill="white"/>
<path d="M19.3964 7.70514H18.2236V16.2304H19.3964V7.70514Z" fill="white"/>
<path d="M16.0749 7.70514H14.9021V16.2304H16.0749V7.70514Z" fill="white"/>
<path d="M12.753 7.70514H11.5802V16.2304H12.753V7.70514Z" fill="white"/>
</svg>
