<svg width="48" height="48" viewBox="0 0 48 48" fill="none" xmlns="http://www.w3.org/2000/svg">
<circle cx="24" cy="24" r="23.5" stroke="#00693B"/>
<path d="M9 32H40" stroke="#00693B"/>
<path d="M13 35L36 35" stroke="#00693B"/>
<path d="M17 38L33 38" stroke="#00693B"/>
<path d="M18 20.35C18 14.65 22 10.6917 24 8C26.3333 10.85 30 14.65 30 20.35C30 25.1 27 27 24 27C21 27 18 25.1 18 20.35Z" stroke="#FBB915"/>
<path d="M22 16.2C22 13.8 23.3333 12.1333 24 11C24.7778 12.2 26 13.8 26 16.2C26 18.2 25 19 24 19C23 19 22 18.2 22 16.2Z" stroke="#FBB915"/>
</svg>
