<svg width="48" height="48" viewBox="0 0 48 48" fill="none" xmlns="http://www.w3.org/2000/svg">
<circle cx="24" cy="24" r="23.5" stroke="#00693B"/>
<path d="M4 22.9998C5 22.9998 7 22.9998 9 22.9998C11 22.9998 9 33 13 33C17 33 15 22.9998 17 22.9998C17.5 22.9998 19 22.9998 20 22.9998C22 22.9998 20 33 24 33C28 33 26 22.9998 28 22.9998C29 22.9998 30 22.9998 31 22.9998C33 22.9998 31 33 35 33C39 33 37 23 39 22.9998C39.8 22.9997 42.3333 22.9998 44 22.9998" stroke="#00693B"/>
<path d="M4 19C5 19 8 19 10 19C12 19 11 26 13 26C15 26 14 19 16 19C16.5 19 20 19 21 19C23 19 22 26 24 26C26 26 25 19 27 19C28 19 31 19 32 19C34 19 33 26 35 26C37 26 36 19.0002 38 19C38.8 19 42.3333 19 44 19" stroke="#FBB915"/>
</svg>
