<svg width="30" height="38" viewBox="0 0 30 38" fill="none" xmlns="http://www.w3.org/2000/svg">
<g filter="url(#filter0_d)">
<path d="M13.8695 30.3947C5.54516 18.0526 4 16.7859 4 12.25C4 6.03678 8.92485 1 15 1C21.0752 1 26 6.03678 26 12.25C26 16.7859 24.4548 18.0526 16.1305 30.3947C15.5842 31.2018 14.4157 31.2017 13.8695 30.3947ZM15 16.9375C17.5313 16.9375 19.5833 14.8388 19.5833 12.25C19.5833 9.66115 17.5313 7.5625 15 7.5625C12.4687 7.5625 10.4167 9.66115 10.4167 12.25C10.4167 14.8388 12.4687 16.9375 15 16.9375Z" fill="#00693B"/>
<path d="M14.2839 30.115C12.7873 27.8959 11.513 26.0395 10.4288 24.4598C8.48603 21.6294 7.15329 19.6877 6.24413 18.1416C5.54202 16.9476 5.11073 16.0184 4.85177 15.124C4.59385 14.2333 4.5 13.3535 4.5 12.25C4.5 6.30227 9.21152 1.5 15 1.5C20.7885 1.5 25.5 6.30227 25.5 12.25C25.5 13.3535 25.4061 14.2333 25.1482 15.124C24.8893 16.0184 24.458 16.9476 23.7559 18.1416C22.8467 19.6877 21.514 21.6294 19.5712 24.4598C18.487 26.0395 17.2127 27.8959 15.7161 30.1149C15.3681 30.6284 14.6319 30.6283 14.2839 30.115ZM15 17.4375C17.818 17.4375 20.0833 15.1043 20.0833 12.25C20.0833 9.39566 17.818 7.0625 15 7.0625C12.182 7.0625 9.91667 9.39566 9.91667 12.25C9.91667 15.1043 12.182 17.4375 15 17.4375Z" stroke="#FBB915"/>
</g>
<defs>
<filter id="filter0_d" x="0" y="0" width="30" height="38" filterUnits="userSpaceOnUse" color-interpolation-filters="sRGB">
<feFlood flood-opacity="0" result="BackgroundImageFix"/>
<feColorMatrix in="SourceAlpha" type="matrix" values="0 0 0 0 0 0 0 0 0 0 0 0 0 0 0 0 0 0 127 0"/>
<feOffset dy="3"/>
<feGaussianBlur stdDeviation="2"/>
<feColorMatrix type="matrix" values="0 0 0 0 0 0 0 0 0 0 0 0 0 0 0 0 0 0 0.4 0"/>
<feBlend mode="normal" in2="BackgroundImageFix" result="effect1_dropShadow"/>
<feBlend mode="normal" in="SourceGraphic" in2="effect1_dropShadow" result="shape"/>
</filter>
</defs>
</svg>
