<svg width="22" height="24" viewBox="0 0 22 24" fill="none" xmlns="http://www.w3.org/2000/svg">
<path d="M19.9375 24C8.9332 24 0 14.2735 0 2.25005C-5.2345e-05 1.99564 0.0789444 1.74871 0.224097 1.54959C0.36925 1.35046 0.571987 1.21088 0.799219 1.15364M19.9375 24L0.92136 1.63849L5.3883 0.513945C5.38854 0.513886 5.38878 0.513827 5.38902 0.513768C5.50029 0.486365 5.61799 0.50113 5.72493 0.560099C5.83311 0.61975 5.92843 0.724271 5.98485 0.864594C5.98501 0.865006 5.98518 0.865417 5.98534 0.865829L8.04671 6.11297C8.04672 6.11299 8.04673 6.11301 8.04673 6.11303C8.09785 6.24322 8.10925 6.39049 8.07763 6.53045L8.56535 6.64062L8.07763 6.53045C8.04605 6.67029 7.97512 6.78766 7.88378 6.8687L7.88261 6.86974L5.2787 9.19474L5.00965 9.43497L5.15275 9.76607C6.7729 13.5147 9.54276 16.5416 12.9967 18.3181L13.372 18.5112L13.6253 18.1736L15.7565 15.3329L15.7569 15.3325C15.8347 15.2285 15.9353 15.1626 16.0385 15.1349C16.1408 15.1074 16.2486 15.1163 16.3486 15.1627C16.3487 15.1627 16.3488 15.1628 16.3489 15.1628L21.1579 17.4111C21.1583 17.4113 21.1586 17.4115 21.159 17.4117C21.2696 17.4645 21.3697 17.5626 21.4333 17.6991C21.497 17.8361 21.5163 17.9967 21.4848 18.151C21.4847 18.1514 21.4846 18.1518 21.4845 18.1523L20.4538 23.0246C20.4538 23.0247 20.4538 23.0247 20.4538 23.0247C20.4227 23.1716 20.3484 23.2946 20.2523 23.378C20.1571 23.4605 20.046 23.5001 19.9379 23.5H19.9375C9.24914 23.5 0.5 14.0389 0.5 2.25005L0.5 2.24994C0.499969 2.09775 0.5475 1.95475 0.628144 1.84411C0.708283 1.73418 0.813573 1.66567 0.921284 1.63851L0.799219 1.15364M19.9375 24C20.1708 24.0002 20.3972 23.9141 20.5799 23.7557C20.7625 23.5974 20.8905 23.3761 20.943 23.1282L19.9375 24ZM0.799219 1.15364L5.26797 0.0286417M0.799219 1.15364L5.26797 0.0286417M5.26797 0.0286417C5.50366 -0.0297991 5.75065 0.00330669 5.96636 0.12225C6.18207 0.241194 6.35298 0.438521 6.44961 0.680204L5.26797 0.0286417Z" stroke="white"/>
</svg>
