<svg width="32" height="32" viewBox="0 0 32 32" fill="none" xmlns="http://www.w3.org/2000/svg">
<path d="M19.0009 11.9988V13.9986C19.0009 14.4111 18.6634 14.7486 18.2509 14.7486H14.7507V18.2482C14.7507 18.6607 14.4132 18.9981 14.0007 18.9981H12.0006C11.5881 18.9981 11.2506 18.6607 11.2506 18.2482V14.7486H7.75038C7.33786 14.7486 7.00034 14.4111 7.00034 13.9986V11.9988C7.00034 11.5864 7.33786 11.2489 7.75038 11.2489H11.2506V7.74924C11.2506 7.33678 11.5881 6.99932 12.0006 6.99932H14.0007C14.4132 6.99932 14.7507 7.33678 14.7507 7.74924V11.2489H18.2509C18.6634 11.2489 19.0009 11.5864 19.0009 11.9988ZM31.564 29.7908L29.7952 31.5594C29.2077 32.1469 28.2576 32.1469 27.6764 31.5594L21.4385 25.3288C21.1573 25.0476 21.001 24.6663 21.001 24.2664V23.2477C18.7947 24.9726 16.0195 25.9975 13.0006 25.9975C5.81903 25.9975 0 20.1793 0 12.9987C0 5.81818 5.81903 0 13.0006 0C20.1822 0 26.0013 5.81818 26.0013 12.9987C26.0013 16.0172 24.9762 18.7919 23.2511 20.9979H24.2699C24.67 20.9979 25.0512 21.1542 25.3325 21.4354L31.564 27.666C32.1453 28.2535 32.1453 29.2034 31.564 29.7908ZM21.5011 12.9987C21.5011 8.29919 17.7009 4.49956 13.0006 4.49956C8.30041 4.49956 4.50022 8.29919 4.50022 12.9987C4.50022 17.6983 8.30041 21.4979 13.0006 21.4979C17.7009 21.4979 21.5011 17.6983 21.5011 12.9987Z" fill="#00693B"/>
</svg>
